<?xml version="1.0" encoding="UTF-8" standalone="no"?>
<!DOCTYPE svg PUBLIC "-//W3C//DTD SVG 1.1//EN"
 "http://www.w3.org/Graphics/SVG/1.1/DTD/svg11.dtd">
<!-- Generated by graphviz version 2.40.1 (20161225.0304)
 -->
<!-- Title: %3 Pages: 1 -->
<svg width="1162pt" height="620pt"
 viewBox="0.00 0.00 1161.50 620.00" xmlns="http://www.w3.org/2000/svg" xmlns:xlink="http://www.w3.org/1999/xlink">
<g id="graph0" class="graph" transform="scale(1 1) rotate(0) translate(4 616)">
<title>%3</title>
<polygon fill="#ffffff" stroke="transparent" points="-4,4 -4,-616 1157.5,-616 1157.5,4 -4,4"/>
<!-- [root] aws_eip.nat (expand) -->
<g id="node1" class="node">
<title>[root] aws_eip.nat (expand)</title>
<polygon fill="none" stroke="#000000" points="759,-468 678,-468 678,-432 759,-432 759,-468"/>
<text text-anchor="middle" x="718.5" y="-446.3" font-family="Times,serif" font-size="14.00" fill="#000000">aws_eip.nat</text>
</g>
<!-- [root] aws_instance.nat (expand) -->
<g id="node4" class="node">
<title>[root] aws_instance.nat (expand)</title>
<polygon fill="none" stroke="#000000" points="773,-324 664,-324 664,-288 773,-288 773,-324"/>
<text text-anchor="middle" x="718.5" y="-302.3" font-family="Times,serif" font-size="14.00" fill="#000000">aws_instance.nat</text>
</g>
<!-- [root] aws_eip.nat (expand)&#45;&gt;[root] aws_instance.nat (expand) -->
<g id="edge1" class="edge">
<title>[root] aws_eip.nat (expand)&#45;&gt;[root] aws_instance.nat (expand)</title>
<path fill="none" stroke="#000000" d="M718.5,-431.7623C718.5,-407.201 718.5,-363.2474 718.5,-334.3541"/>
<polygon fill="#000000" stroke="#000000" points="722.0001,-334.0896 718.5,-324.0896 715.0001,-334.0897 722.0001,-334.0896"/>
</g>
<!-- [root] aws_eip.web&#45;1 (expand) -->
<g id="node2" class="node">
<title>[root] aws_eip.web&#45;1 (expand)</title>
<polygon fill="none" stroke="#000000" points="659.5,-468 561.5,-468 561.5,-432 659.5,-432 659.5,-468"/>
<text text-anchor="middle" x="610.5" y="-446.3" font-family="Times,serif" font-size="14.00" fill="#000000">aws_eip.web&#45;1</text>
</g>
<!-- [root] aws_instance.web&#45;1 (expand) -->
<g id="node5" class="node">
<title>[root] aws_instance.web&#45;1 (expand)</title>
<polygon fill="none" stroke="#000000" points="566.5,-324 440.5,-324 440.5,-288 566.5,-288 566.5,-324"/>
<text text-anchor="middle" x="503.5" y="-302.3" font-family="Times,serif" font-size="14.00" fill="#000000">aws_instance.web&#45;1</text>
</g>
<!-- [root] aws_eip.web&#45;1 (expand)&#45;&gt;[root] aws_instance.web&#45;1 (expand) -->
<g id="edge2" class="edge">
<title>[root] aws_eip.web&#45;1 (expand)&#45;&gt;[root] aws_instance.web&#45;1 (expand)</title>
<path fill="none" stroke="#000000" d="M610.7503,-431.7763C610.1464,-412.3192 606.594,-381.4027 591.5,-360 582.6866,-347.503 569.9744,-337.3382 556.9407,-329.3391"/>
<polygon fill="#000000" stroke="#000000" points="558.3235,-326.0969 547.91,-324.1452 554.8336,-332.1649 558.3235,-326.0969"/>
</g>
<!-- [root] aws_instance.db&#45;1 (expand) -->
<g id="node3" class="node">
<title>[root] aws_instance.db&#45;1 (expand)</title>
<polygon fill="none" stroke="#000000" points="354,-396 237,-396 237,-360 354,-360 354,-396"/>
<text text-anchor="middle" x="295.5" y="-374.3" font-family="Times,serif" font-size="14.00" fill="#000000">aws_instance.db&#45;1</text>
</g>
<!-- [root] aws_security_group.db (expand) -->
<g id="node11" class="node">
<title>[root] aws_security_group.db (expand)</title>
<polygon fill="none" stroke="#000000" points="346,-324 203,-324 203,-288 346,-288 346,-324"/>
<text text-anchor="middle" x="274.5" y="-302.3" font-family="Times,serif" font-size="14.00" fill="#000000">aws_security_group.db</text>
</g>
<!-- [root] aws_instance.db&#45;1 (expand)&#45;&gt;[root] aws_security_group.db (expand) -->
<g id="edge3" class="edge">
<title>[root] aws_instance.db&#45;1 (expand)&#45;&gt;[root] aws_security_group.db (expand)</title>
<path fill="none" stroke="#000000" d="M290.2008,-359.8314C287.9302,-352.0463 285.2254,-342.7729 282.706,-334.1347"/>
<polygon fill="#000000" stroke="#000000" points="286.0306,-333.0332 279.8705,-324.4133 279.3106,-334.9933 286.0306,-333.0332"/>
</g>
<!-- [root] aws_subnet.eu&#45;west&#45;1a&#45;private (expand) -->
<g id="node14" class="node">
<title>[root] aws_subnet.eu&#45;west&#45;1a&#45;private (expand)</title>
<polygon fill="none" stroke="#000000" points="185,-324 0,-324 0,-288 185,-288 185,-324"/>
<text text-anchor="middle" x="92.5" y="-302.3" font-family="Times,serif" font-size="14.00" fill="#000000">aws_subnet.eu&#45;west&#45;1a&#45;private</text>
</g>
<!-- [root] aws_instance.db&#45;1 (expand)&#45;&gt;[root] aws_subnet.eu&#45;west&#45;1a&#45;private (expand) -->
<g id="edge4" class="edge">
<title>[root] aws_instance.db&#45;1 (expand)&#45;&gt;[root] aws_subnet.eu&#45;west&#45;1a&#45;private (expand)</title>
<path fill="none" stroke="#000000" d="M244.5366,-359.9243C216.7853,-350.0815 182.2672,-337.8386 153.1386,-327.5073"/>
<polygon fill="#000000" stroke="#000000" points="154.0792,-324.1273 143.4844,-324.0831 151.7392,-330.7246 154.0792,-324.1273"/>
</g>
<!-- [root] var.amis -->
<g id="node18" class="node">
<title>[root] var.amis</title>
<polygon fill="none" stroke="#000000" points="502.5,-252 444.5,-252 444.5,-216 508.5,-216 508.5,-246 502.5,-252"/>
<polyline fill="none" stroke="#000000" points="502.5,-252 502.5,-246 "/>
<polyline fill="none" stroke="#000000" points="508.5,-246 502.5,-246 "/>
<text text-anchor="middle" x="476.5" y="-230.3" font-family="Times,serif" font-size="14.00" fill="#000000">var.amis</text>
</g>
<!-- [root] aws_instance.db&#45;1 (expand)&#45;&gt;[root] var.amis -->
<g id="edge5" class="edge">
<title>[root] aws_instance.db&#45;1 (expand)&#45;&gt;[root] var.amis</title>
<path fill="none" stroke="#000000" d="M324.6968,-359.9888C340.4278,-349.9272 359.9492,-336.856 376.5,-324 402.8806,-303.5086 430.9955,-277.8238 450.6736,-259.1436"/>
<polygon fill="#000000" stroke="#000000" points="453.2289,-261.5428 458.0402,-252.1034 448.3926,-256.4822 453.2289,-261.5428"/>
</g>
<!-- [root] var.aws_key_name -->
<g id="node19" class="node">
<title>[root] var.aws_key_name</title>
<polygon fill="none" stroke="#000000" points="642.5,-252 526.5,-252 526.5,-216 648.5,-216 648.5,-246 642.5,-252"/>
<polyline fill="none" stroke="#000000" points="642.5,-252 642.5,-246 "/>
<polyline fill="none" stroke="#000000" points="648.5,-246 642.5,-246 "/>
<text text-anchor="middle" x="587.5" y="-230.3" font-family="Times,serif" font-size="14.00" fill="#000000">var.aws_key_name</text>
</g>
<!-- [root] aws_instance.db&#45;1 (expand)&#45;&gt;[root] var.aws_key_name -->
<g id="edge6" class="edge">
<title>[root] aws_instance.db&#45;1 (expand)&#45;&gt;[root] var.aws_key_name</title>
<path fill="none" stroke="#000000" d="M354.0239,-362.1483C357.2227,-361.3945 360.3969,-360.6727 363.5,-360 410.2007,-349.8756 542.3183,-358.3865 575.5,-324 590.9948,-307.9427 593.0227,-282.1244 591.7393,-262.2499"/>
<polygon fill="#000000" stroke="#000000" points="595.2149,-261.8258 590.7854,-252.2013 588.2462,-262.4873 595.2149,-261.8258"/>
</g>
<!-- [root] var.aws_region -->
<g id="node20" class="node">
<title>[root] var.aws_region</title>
<polygon fill="none" stroke="#000000" points="420.5,-252 326.5,-252 326.5,-216 426.5,-216 426.5,-246 420.5,-252"/>
<polyline fill="none" stroke="#000000" points="420.5,-252 420.5,-246 "/>
<polyline fill="none" stroke="#000000" points="426.5,-246 420.5,-246 "/>
<text text-anchor="middle" x="376.5" y="-230.3" font-family="Times,serif" font-size="14.00" fill="#000000">var.aws_region</text>
</g>
<!-- [root] aws_instance.db&#45;1 (expand)&#45;&gt;[root] var.aws_region -->
<g id="edge7" class="edge">
<title>[root] aws_instance.db&#45;1 (expand)&#45;&gt;[root] var.aws_region</title>
<path fill="none" stroke="#000000" d="M321.4715,-359.8915C333.1863,-350.4594 346.2215,-337.9787 354.5,-324 365.7204,-305.0537 371.2317,-280.6346 373.9311,-262.0135"/>
<polygon fill="#000000" stroke="#000000" points="377.4061,-262.4315 375.1888,-252.0713 370.4614,-261.5529 377.4061,-262.4315"/>
</g>
<!-- [root] aws_security_group.nat (expand) -->
<g id="node12" class="node">
<title>[root] aws_security_group.nat (expand)</title>
<polygon fill="none" stroke="#000000" points="812.5,-252 666.5,-252 666.5,-216 812.5,-216 812.5,-252"/>
<text text-anchor="middle" x="739.5" y="-230.3" font-family="Times,serif" font-size="14.00" fill="#000000">aws_security_group.nat</text>
</g>
<!-- [root] aws_instance.nat (expand)&#45;&gt;[root] aws_security_group.nat (expand) -->
<g id="edge8" class="edge">
<title>[root] aws_instance.nat (expand)&#45;&gt;[root] aws_security_group.nat (expand)</title>
<path fill="none" stroke="#000000" d="M723.7992,-287.8314C726.0698,-280.0463 728.7746,-270.7729 731.294,-262.1347"/>
<polygon fill="#000000" stroke="#000000" points="734.6894,-262.9933 734.1295,-252.4133 727.9694,-261.0332 734.6894,-262.9933"/>
</g>
<!-- [root] aws_subnet.eu&#45;west&#45;1a&#45;public (expand) -->
<g id="node15" class="node">
<title>[root] aws_subnet.eu&#45;west&#45;1a&#45;public (expand)</title>
<polygon fill="none" stroke="#000000" points="1012,-252 831,-252 831,-216 1012,-216 1012,-252"/>
<text text-anchor="middle" x="921.5" y="-230.3" font-family="Times,serif" font-size="14.00" fill="#000000">aws_subnet.eu&#45;west&#45;1a&#45;public</text>
</g>
<!-- [root] aws_instance.nat (expand)&#45;&gt;[root] aws_subnet.eu&#45;west&#45;1a&#45;public (expand) -->
<g id="edge9" class="edge">
<title>[root] aws_instance.nat (expand)&#45;&gt;[root] aws_subnet.eu&#45;west&#45;1a&#45;public (expand)</title>
<path fill="none" stroke="#000000" d="M769.4634,-287.9243C797.2147,-278.0815 831.7328,-265.8386 860.8614,-255.5073"/>
<polygon fill="#000000" stroke="#000000" points="862.2608,-258.7246 870.5156,-252.0831 859.9208,-252.1273 862.2608,-258.7246"/>
</g>
<!-- [root] aws_instance.nat (expand)&#45;&gt;[root] var.aws_key_name -->
<g id="edge10" class="edge">
<title>[root] aws_instance.nat (expand)&#45;&gt;[root] var.aws_key_name</title>
<path fill="none" stroke="#000000" d="M685.4432,-287.8314C668.5323,-278.5368 647.7615,-267.1208 629.7059,-257.1971"/>
<polygon fill="#000000" stroke="#000000" points="630.9957,-253.9122 620.5463,-252.1628 627.624,-260.0468 630.9957,-253.9122"/>
</g>
<!-- [root] aws_security_group.web (expand) -->
<g id="node13" class="node">
<title>[root] aws_security_group.web (expand)</title>
<polygon fill="none" stroke="#000000" points="308.5,-252 156.5,-252 156.5,-216 308.5,-216 308.5,-252"/>
<text text-anchor="middle" x="232.5" y="-230.3" font-family="Times,serif" font-size="14.00" fill="#000000">aws_security_group.web</text>
</g>
<!-- [root] aws_instance.web&#45;1 (expand)&#45;&gt;[root] aws_security_group.web (expand) -->
<g id="edge11" class="edge">
<title>[root] aws_instance.web&#45;1 (expand)&#45;&gt;[root] aws_security_group.web (expand)</title>
<path fill="none" stroke="#000000" d="M440.3046,-289.2101C401.4995,-278.9002 351.5055,-265.6177 310.279,-254.6645"/>
<polygon fill="#000000" stroke="#000000" points="311.1066,-251.2631 300.5431,-252.0779 309.3091,-258.0284 311.1066,-251.2631"/>
</g>
<!-- [root] aws_instance.web&#45;1 (expand)&#45;&gt;[root] aws_subnet.eu&#45;west&#45;1a&#45;public (expand) -->
<g id="edge12" class="edge">
<title>[root] aws_instance.web&#45;1 (expand)&#45;&gt;[root] aws_subnet.eu&#45;west&#45;1a&#45;public (expand)</title>
<path fill="none" stroke="#000000" d="M566.5826,-295.4767C628.5746,-285.0924 726.153,-268.6331 820.7281,-252.1267"/>
<polygon fill="#000000" stroke="#000000" points="821.5078,-255.5435 830.756,-250.3743 820.3027,-248.648 821.5078,-255.5435"/>
</g>
<!-- [root] aws_instance.web&#45;1 (expand)&#45;&gt;[root] var.amis -->
<g id="edge13" class="edge">
<title>[root] aws_instance.web&#45;1 (expand)&#45;&gt;[root] var.amis</title>
<path fill="none" stroke="#000000" d="M496.6868,-287.8314C493.7356,-279.9617 490.2142,-270.5712 486.945,-261.8533"/>
<polygon fill="#000000" stroke="#000000" points="490.1934,-260.5476 483.405,-252.4133 483.6391,-263.0055 490.1934,-260.5476"/>
</g>
<!-- [root] aws_instance.web&#45;1 (expand)&#45;&gt;[root] var.aws_key_name -->
<g id="edge14" class="edge">
<title>[root] aws_instance.web&#45;1 (expand)&#45;&gt;[root] var.aws_key_name</title>
<path fill="none" stroke="#000000" d="M524.6967,-287.8314C534.9434,-279.0485 547.4003,-268.3712 558.5097,-258.8489"/>
<polygon fill="#000000" stroke="#000000" points="560.9952,-261.3282 566.31,-252.1628 556.4397,-256.0134 560.9952,-261.3282"/>
</g>
<!-- [root] aws_instance.web&#45;1 (expand)&#45;&gt;[root] var.aws_region -->
<g id="edge15" class="edge">
<title>[root] aws_instance.web&#45;1 (expand)&#45;&gt;[root] var.aws_region</title>
<path fill="none" stroke="#000000" d="M471.4525,-287.8314C455.058,-278.5368 434.9214,-267.1208 417.4171,-257.1971"/>
<polygon fill="#000000" stroke="#000000" points="418.9626,-254.05 408.5372,-252.1628 415.5103,-260.1395 418.9626,-254.05"/>
</g>
<!-- [root] aws_internet_gateway.default (expand) -->
<g id="node6" class="node">
<title>[root] aws_internet_gateway.default (expand)</title>
<polygon fill="none" stroke="#000000" points="1139,-324 960,-324 960,-288 1139,-288 1139,-324"/>
<text text-anchor="middle" x="1049.5" y="-302.3" font-family="Times,serif" font-size="14.00" fill="#000000">aws_internet_gateway.default</text>
</g>
<!-- [root] aws_vpc.default (expand) -->
<g id="node16" class="node">
<title>[root] aws_vpc.default (expand)</title>
<polygon fill="none" stroke="#000000" points="792,-180 687,-180 687,-144 792,-144 792,-180"/>
<text text-anchor="middle" x="739.5" y="-158.3" font-family="Times,serif" font-size="14.00" fill="#000000">aws_vpc.default</text>
</g>
<!-- [root] aws_internet_gateway.default (expand)&#45;&gt;[root] aws_vpc.default (expand) -->
<g id="edge16" class="edge">
<title>[root] aws_internet_gateway.default (expand)&#45;&gt;[root] aws_vpc.default (expand)</title>
<path fill="none" stroke="#000000" d="M1049.1161,-287.9001C1047.6527,-267.3522 1042.0005,-234.3163 1021.5,-216 1017.3852,-212.3236 883.9841,-187.887 802.159,-173.1757"/>
<polygon fill="#000000" stroke="#000000" points="802.6639,-169.7104 792.2027,-171.3879 801.4267,-176.6002 802.6639,-169.7104"/>
</g>
<!-- [root] aws_route_table.eu&#45;west&#45;1a&#45;private (expand) -->
<g id="node7" class="node">
<title>[root] aws_route_table.eu&#45;west&#45;1a&#45;private (expand)</title>
<polygon fill="none" stroke="#000000" points="582.5,-396 372.5,-396 372.5,-360 582.5,-360 582.5,-396"/>
<text text-anchor="middle" x="477.5" y="-374.3" font-family="Times,serif" font-size="14.00" fill="#000000">aws_route_table.eu&#45;west&#45;1a&#45;private</text>
</g>
<!-- [root] aws_route_table.eu&#45;west&#45;1a&#45;private (expand)&#45;&gt;[root] aws_instance.nat (expand) -->
<g id="edge17" class="edge">
<title>[root] aws_route_table.eu&#45;west&#45;1a&#45;private (expand)&#45;&gt;[root] aws_instance.nat (expand)</title>
<path fill="none" stroke="#000000" d="M538.0034,-359.9243C573.3068,-349.3772 617.8344,-336.0744 653.8295,-325.3206"/>
<polygon fill="#000000" stroke="#000000" points="655.1613,-328.5757 663.741,-322.3595 653.1575,-321.8686 655.1613,-328.5757"/>
</g>
<!-- [root] aws_route_table.eu&#45;west&#45;1a&#45;public (expand) -->
<g id="node8" class="node">
<title>[root] aws_route_table.eu&#45;west&#45;1a&#45;public (expand)</title>
<polygon fill="none" stroke="#000000" points="1153.5,-396 947.5,-396 947.5,-360 1153.5,-360 1153.5,-396"/>
<text text-anchor="middle" x="1050.5" y="-374.3" font-family="Times,serif" font-size="14.00" fill="#000000">aws_route_table.eu&#45;west&#45;1a&#45;public</text>
</g>
<!-- [root] aws_route_table.eu&#45;west&#45;1a&#45;public (expand)&#45;&gt;[root] aws_internet_gateway.default (expand) -->
<g id="edge18" class="edge">
<title>[root] aws_route_table.eu&#45;west&#45;1a&#45;public (expand)&#45;&gt;[root] aws_internet_gateway.default (expand)</title>
<path fill="none" stroke="#000000" d="M1050.2477,-359.8314C1050.1407,-352.131 1050.0135,-342.9743 1049.8947,-334.4166"/>
<polygon fill="#000000" stroke="#000000" points="1053.3944,-334.3637 1049.7557,-324.4133 1046.3951,-334.4609 1053.3944,-334.3637"/>
</g>
<!-- [root] aws_route_table_association.eu&#45;west&#45;1a&#45;private (expand) -->
<g id="node9" class="node">
<title>[root] aws_route_table_association.eu&#45;west&#45;1a&#45;private (expand)</title>
<polygon fill="none" stroke="#000000" points="543,-468 266,-468 266,-432 543,-432 543,-468"/>
<text text-anchor="middle" x="404.5" y="-446.3" font-family="Times,serif" font-size="14.00" fill="#000000">aws_route_table_association.eu&#45;west&#45;1a&#45;private</text>
</g>
<!-- [root] aws_route_table_association.eu&#45;west&#45;1a&#45;private (expand)&#45;&gt;[root] aws_route_table.eu&#45;west&#45;1a&#45;private (expand) -->
<g id="edge19" class="edge">
<title>[root] aws_route_table_association.eu&#45;west&#45;1a&#45;private (expand)&#45;&gt;[root] aws_route_table.eu&#45;west&#45;1a&#45;private (expand)</title>
<path fill="none" stroke="#000000" d="M422.921,-431.8314C431.6529,-423.219 442.2317,-412.7851 451.7423,-403.4048"/>
<polygon fill="#000000" stroke="#000000" points="454.423,-405.6769 459.0849,-396.1628 449.5075,-400.6931 454.423,-405.6769"/>
</g>
<!-- [root] aws_route_table_association.eu&#45;west&#45;1a&#45;private (expand)&#45;&gt;[root] aws_subnet.eu&#45;west&#45;1a&#45;private (expand) -->
<g id="edge20" class="edge">
<title>[root] aws_route_table_association.eu&#45;west&#45;1a&#45;private (expand)&#45;&gt;[root] aws_subnet.eu&#45;west&#45;1a&#45;private (expand)</title>
<path fill="none" stroke="#000000" d="M328.1873,-431.9732C296.2769,-423.1047 259.2978,-411.0499 227.5,-396 189.3628,-377.9497 149.6365,-350.2102 123.2372,-330.2996"/>
<polygon fill="#000000" stroke="#000000" points="125.2267,-327.4152 115.1532,-324.1325 120.9809,-332.9806 125.2267,-327.4152"/>
</g>
<!-- [root] aws_route_table_association.eu&#45;west&#45;1a&#45;public (expand) -->
<g id="node10" class="node">
<title>[root] aws_route_table_association.eu&#45;west&#45;1a&#45;public (expand)</title>
<polygon fill="none" stroke="#000000" points="1089,-468 816,-468 816,-432 1089,-432 1089,-468"/>
<text text-anchor="middle" x="952.5" y="-446.3" font-family="Times,serif" font-size="14.00" fill="#000000">aws_route_table_association.eu&#45;west&#45;1a&#45;public</text>
</g>
<!-- [root] aws_route_table_association.eu&#45;west&#45;1a&#45;public (expand)&#45;&gt;[root] aws_route_table.eu&#45;west&#45;1a&#45;public (expand) -->
<g id="edge21" class="edge">
<title>[root] aws_route_table_association.eu&#45;west&#45;1a&#45;public (expand)&#45;&gt;[root] aws_route_table.eu&#45;west&#45;1a&#45;public (expand)</title>
<path fill="none" stroke="#000000" d="M977.2295,-431.8314C989.4162,-422.8779 1004.2823,-411.9558 1017.4312,-402.2955"/>
<polygon fill="#000000" stroke="#000000" points="1019.7918,-404.9042 1025.7784,-396.1628 1015.6473,-399.263 1019.7918,-404.9042"/>
</g>
<!-- [root] aws_route_table_association.eu&#45;west&#45;1a&#45;public (expand)&#45;&gt;[root] aws_subnet.eu&#45;west&#45;1a&#45;public (expand) -->
<g id="edge22" class="edge">
<title>[root] aws_route_table_association.eu&#45;west&#45;1a&#45;public (expand)&#45;&gt;[root] aws_subnet.eu&#45;west&#45;1a&#45;public (expand)</title>
<path fill="none" stroke="#000000" d="M947.0179,-431.6567C944.0995,-421.2769 940.6741,-408.0078 938.5,-396 930.0807,-349.4985 925.4092,-294.6768 923.1803,-262.2121"/>
<polygon fill="#000000" stroke="#000000" points="926.6643,-261.8527 922.5161,-252.1037 919.6793,-262.3117 926.6643,-261.8527"/>
</g>
<!-- [root] aws_security_group.db (expand)&#45;&gt;[root] aws_security_group.web (expand) -->
<g id="edge23" class="edge">
<title>[root] aws_security_group.db (expand)&#45;&gt;[root] aws_security_group.web (expand)</title>
<path fill="none" stroke="#000000" d="M263.9016,-287.8314C259.2123,-279.7925 253.5972,-270.1666 248.4202,-261.2918"/>
<polygon fill="#000000" stroke="#000000" points="251.3031,-259.2875 243.2411,-252.4133 245.2566,-262.8146 251.3031,-259.2875"/>
</g>
<!-- [root] aws_security_group.nat (expand)&#45;&gt;[root] aws_vpc.default (expand) -->
<g id="edge24" class="edge">
<title>[root] aws_security_group.nat (expand)&#45;&gt;[root] aws_vpc.default (expand)</title>
<path fill="none" stroke="#000000" d="M739.5,-215.8314C739.5,-208.131 739.5,-198.9743 739.5,-190.4166"/>
<polygon fill="#000000" stroke="#000000" points="743.0001,-190.4132 739.5,-180.4133 736.0001,-190.4133 743.0001,-190.4132"/>
</g>
<!-- [root] var.private_subnet_cidr -->
<g id="node21" class="node">
<title>[root] var.private_subnet_cidr</title>
<polygon fill="none" stroke="#000000" points="299,-180 160,-180 160,-144 305,-144 305,-174 299,-180"/>
<polyline fill="none" stroke="#000000" points="299,-180 299,-174 "/>
<polyline fill="none" stroke="#000000" points="305,-174 299,-174 "/>
<text text-anchor="middle" x="232.5" y="-158.3" font-family="Times,serif" font-size="14.00" fill="#000000">var.private_subnet_cidr</text>
</g>
<!-- [root] aws_security_group.nat (expand)&#45;&gt;[root] var.private_subnet_cidr -->
<g id="edge25" class="edge">
<title>[root] aws_security_group.nat (expand)&#45;&gt;[root] var.private_subnet_cidr</title>
<path fill="none" stroke="#000000" d="M666.2466,-217.5788C663.2964,-217.0257 660.3724,-216.4967 657.5,-216 539.2382,-195.5494 401.209,-179.4253 315.3172,-170.2987"/>
<polygon fill="#000000" stroke="#000000" points="315.6768,-166.8173 305.3645,-169.2477 314.9416,-173.7785 315.6768,-166.8173"/>
</g>
<!-- [root] aws_security_group.web (expand)&#45;&gt;[root] aws_vpc.default (expand) -->
<g id="edge26" class="edge">
<title>[root] aws_security_group.web (expand)&#45;&gt;[root] aws_vpc.default (expand)</title>
<path fill="none" stroke="#000000" d="M308.8995,-217.5148C311.7999,-216.9863 314.6743,-216.4792 317.5,-216 444.5541,-194.4549 594.4393,-177.1948 677.0198,-168.3865"/>
<polygon fill="#000000" stroke="#000000" points="677.42,-171.8638 686.9951,-167.3287 676.6818,-164.9028 677.42,-171.8638"/>
</g>
<!-- [root] aws_security_group.web (expand)&#45;&gt;[root] var.private_subnet_cidr -->
<g id="edge27" class="edge">
<title>[root] aws_security_group.web (expand)&#45;&gt;[root] var.private_subnet_cidr</title>
<path fill="none" stroke="#000000" d="M232.5,-215.8314C232.5,-208.131 232.5,-198.9743 232.5,-190.4166"/>
<polygon fill="#000000" stroke="#000000" points="236.0001,-190.4132 232.5,-180.4133 229.0001,-190.4133 236.0001,-190.4132"/>
</g>
<!-- [root] aws_subnet.eu&#45;west&#45;1a&#45;private (expand)&#45;&gt;[root] aws_vpc.default (expand) -->
<g id="edge28" class="edge">
<title>[root] aws_subnet.eu&#45;west&#45;1a&#45;private (expand)&#45;&gt;[root] aws_vpc.default (expand)</title>
<path fill="none" stroke="#000000" d="M98.0021,-287.9216C105.4879,-266.7378 121.0691,-232.4461 147.5,-216 191.6325,-188.5394 532.9224,-170.8574 676.3447,-164.5695"/>
<polygon fill="#000000" stroke="#000000" points="676.8937,-168.0491 686.7326,-164.1189 676.5903,-161.0557 676.8937,-168.0491"/>
</g>
<!-- [root] aws_subnet.eu&#45;west&#45;1a&#45;private (expand)&#45;&gt;[root] var.private_subnet_cidr -->
<g id="edge29" class="edge">
<title>[root] aws_subnet.eu&#45;west&#45;1a&#45;private (expand)&#45;&gt;[root] var.private_subnet_cidr</title>
<path fill="none" stroke="#000000" d="M92.454,-287.7232C93.3403,-267.9319 97.5922,-236.4576 114.5,-216 125.718,-202.4268 141.0855,-192.1081 157.023,-184.3218"/>
<polygon fill="#000000" stroke="#000000" points="158.7994,-187.3585 166.4456,-180.0245 155.8948,-180.9896 158.7994,-187.3585"/>
</g>
<!-- [root] aws_subnet.eu&#45;west&#45;1a&#45;public (expand)&#45;&gt;[root] aws_vpc.default (expand) -->
<g id="edge30" class="edge">
<title>[root] aws_subnet.eu&#45;west&#45;1a&#45;public (expand)&#45;&gt;[root] aws_vpc.default (expand)</title>
<path fill="none" stroke="#000000" d="M875.5737,-215.8314C850.9077,-206.0734 820.3309,-193.977 794.414,-183.7242"/>
<polygon fill="#000000" stroke="#000000" points="795.6824,-180.4621 785.096,-180.038 793.1073,-186.9713 795.6824,-180.4621"/>
</g>
<!-- [root] var.public_subnet_cidr -->
<g id="node22" class="node">
<title>[root] var.public_subnet_cidr</title>
<polygon fill="none" stroke="#000000" points="986,-180 851,-180 851,-144 992,-144 992,-174 986,-180"/>
<polyline fill="none" stroke="#000000" points="986,-180 986,-174 "/>
<polyline fill="none" stroke="#000000" points="992,-174 986,-174 "/>
<text text-anchor="middle" x="921.5" y="-158.3" font-family="Times,serif" font-size="14.00" fill="#000000">var.public_subnet_cidr</text>
</g>
<!-- [root] aws_subnet.eu&#45;west&#45;1a&#45;public (expand)&#45;&gt;[root] var.public_subnet_cidr -->
<g id="edge31" class="edge">
<title>[root] aws_subnet.eu&#45;west&#45;1a&#45;public (expand)&#45;&gt;[root] var.public_subnet_cidr</title>
<path fill="none" stroke="#000000" d="M921.5,-215.8314C921.5,-208.131 921.5,-198.9743 921.5,-190.4166"/>
<polygon fill="#000000" stroke="#000000" points="925.0001,-190.4132 921.5,-180.4133 918.0001,-190.4133 925.0001,-190.4132"/>
</g>
<!-- [root] provider[&quot;registry.terraform.io/hashicorp/aws&quot;] -->
<g id="node17" class="node">
<title>[root] provider[&quot;registry.terraform.io/hashicorp/aws&quot;]</title>
<polygon fill="none" stroke="#000000" points="583.5,-108 330.9633,-90 583.5,-72 836.0367,-90 583.5,-108"/>
<text text-anchor="middle" x="583.5" y="-86.3" font-family="Times,serif" font-size="14.00" fill="#000000">provider[&quot;registry.terraform.io/hashicorp/aws&quot;]</text>
</g>
<!-- [root] aws_vpc.default (expand)&#45;&gt;[root] provider[&quot;registry.terraform.io/hashicorp/aws&quot;] -->
<g id="edge32" class="edge">
<title>[root] aws_vpc.default (expand)&#45;&gt;[root] provider[&quot;registry.terraform.io/hashicorp/aws&quot;]</title>
<path fill="none" stroke="#000000" d="M700.1346,-143.8314C677.6839,-133.4695 649.5202,-120.4709 626.4928,-109.8428"/>
<polygon fill="#000000" stroke="#000000" points="627.842,-106.6108 617.2956,-105.598 624.9085,-112.9665 627.842,-106.6108"/>
</g>
<!-- [root] var.vpc_cidr -->
<g id="node24" class="node">
<title>[root] var.vpc_cidr</title>
<polygon fill="none" stroke="#000000" points="933,-108 854,-108 854,-72 939,-72 939,-102 933,-108"/>
<polyline fill="none" stroke="#000000" points="933,-108 933,-102 "/>
<polyline fill="none" stroke="#000000" points="939,-102 933,-102 "/>
<text text-anchor="middle" x="896.5" y="-86.3" font-family="Times,serif" font-size="14.00" fill="#000000">var.vpc_cidr</text>
</g>
<!-- [root] aws_vpc.default (expand)&#45;&gt;[root] var.vpc_cidr -->
<g id="edge33" class="edge">
<title>[root] aws_vpc.default (expand)&#45;&gt;[root] var.vpc_cidr</title>
<path fill="none" stroke="#000000" d="M779.1177,-143.8314C800.0222,-134.2446 825.8483,-122.4008 847.9488,-112.2655"/>
<polygon fill="#000000" stroke="#000000" points="849.5364,-115.388 857.1672,-108.038 846.6184,-109.0252 849.5364,-115.388"/>
</g>
<!-- [root] var.region -->
<g id="node23" class="node">
<title>[root] var.region</title>
<polygon fill="none" stroke="#000000" points="613.5,-36 547.5,-36 547.5,0 619.5,0 619.5,-30 613.5,-36"/>
<polyline fill="none" stroke="#000000" points="613.5,-36 613.5,-30 "/>
<polyline fill="none" stroke="#000000" points="619.5,-30 613.5,-30 "/>
<text text-anchor="middle" x="583.5" y="-14.3" font-family="Times,serif" font-size="14.00" fill="#000000">var.region</text>
</g>
<!-- [root] provider[&quot;registry.terraform.io/hashicorp/aws&quot;]&#45;&gt;[root] var.region -->
<g id="edge44" class="edge">
<title>[root] provider[&quot;registry.terraform.io/hashicorp/aws&quot;]&#45;&gt;[root] var.region</title>
<path fill="none" stroke="#000000" d="M583.5,-71.8314C583.5,-64.131 583.5,-54.9743 583.5,-46.4166"/>
<polygon fill="#000000" stroke="#000000" points="587.0001,-46.4132 583.5,-36.4133 580.0001,-46.4133 587.0001,-46.4132"/>
</g>
<!-- [root] meta.count&#45;boundary (EachMode fixup) -->
<g id="node25" class="node">
<title>[root] meta.count&#45;boundary (EachMode fixup)</title>
<ellipse fill="none" stroke="#000000" cx="384.5" cy="-522" rx="176.5689" ry="18"/>
<text text-anchor="middle" x="384.5" y="-518.3" font-family="Times,serif" font-size="14.00" fill="#000000">[root] meta.count&#45;boundary (EachMode fixup)</text>
</g>
<!-- [root] meta.count&#45;boundary (EachMode fixup)&#45;&gt;[root] aws_eip.nat (expand) -->
<g id="edge34" class="edge">
<title>[root] meta.count&#45;boundary (EachMode fixup)&#45;&gt;[root] aws_eip.nat (expand)</title>
<path fill="none" stroke="#000000" d="M483.9505,-507.0409C536.2794,-498.2311 601.5327,-485.7702 667.9343,-467.9369"/>
<polygon fill="#000000" stroke="#000000" points="669.0095,-471.2716 677.7381,-465.2666 667.1698,-464.5177 669.0095,-471.2716"/>
</g>
<!-- [root] meta.count&#45;boundary (EachMode fixup)&#45;&gt;[root] aws_eip.web&#45;1 (expand) -->
<g id="edge35" class="edge">
<title>[root] meta.count&#45;boundary (EachMode fixup)&#45;&gt;[root] aws_eip.web&#45;1 (expand)</title>
<path fill="none" stroke="#000000" d="M438.3455,-504.8457C472.4764,-493.9721 516.6346,-479.904 551.6823,-468.7384"/>
<polygon fill="#000000" stroke="#000000" points="552.8444,-472.0416 561.3101,-465.6711 550.7195,-465.3719 552.8444,-472.0416"/>
</g>
<!-- [root] meta.count&#45;boundary (EachMode fixup)&#45;&gt;[root] aws_instance.db&#45;1 (expand) -->
<g id="edge36" class="edge">
<title>[root] meta.count&#45;boundary (EachMode fixup)&#45;&gt;[root] aws_instance.db&#45;1 (expand)</title>
<path fill="none" stroke="#000000" d="M306.9713,-505.742C287.2398,-497.7288 268.3008,-485.7864 256.5,-468 243.2144,-447.9757 256.4266,-422.68 270.9604,-404.0091"/>
<polygon fill="#000000" stroke="#000000" points="273.7462,-406.1323 277.4178,-396.194 268.35,-401.6735 273.7462,-406.1323"/>
</g>
<!-- [root] meta.count&#45;boundary (EachMode fixup)&#45;&gt;[root] aws_route_table_association.eu&#45;west&#45;1a&#45;private (expand) -->
<g id="edge37" class="edge">
<title>[root] meta.count&#45;boundary (EachMode fixup)&#45;&gt;[root] aws_route_table_association.eu&#45;west&#45;1a&#45;private (expand)</title>
<path fill="none" stroke="#000000" d="M389.5468,-503.8314C391.7094,-496.0463 394.2853,-486.7729 396.6848,-478.1347"/>
<polygon fill="#000000" stroke="#000000" points="400.081,-478.9852 399.3852,-468.4133 393.3364,-477.1117 400.081,-478.9852"/>
</g>
<!-- [root] meta.count&#45;boundary (EachMode fixup)&#45;&gt;[root] aws_route_table_association.eu&#45;west&#45;1a&#45;public (expand) -->
<g id="edge38" class="edge">
<title>[root] meta.count&#45;boundary (EachMode fixup)&#45;&gt;[root] aws_route_table_association.eu&#45;west&#45;1a&#45;public (expand)</title>
<path fill="none" stroke="#000000" d="M495.3645,-507.9468C583.9195,-496.7215 708.7918,-480.8926 805.6533,-468.6144"/>
<polygon fill="#000000" stroke="#000000" points="806.3483,-472.0544 815.8288,-467.3245 805.468,-465.1099 806.3483,-472.0544"/>
</g>
<!-- [root] provider[&quot;registry.terraform.io/hashicorp/aws&quot;] (close) -->
<g id="node26" class="node">
<title>[root] provider[&quot;registry.terraform.io/hashicorp/aws&quot;] (close)</title>
<ellipse fill="none" stroke="#000000" cx="806.5" cy="-522" rx="227.4596" ry="18"/>
<text text-anchor="middle" x="806.5" y="-518.3" font-family="Times,serif" font-size="14.00" fill="#000000">[root] provider[&quot;registry.terraform.io/hashicorp/aws&quot;] (close)</text>
</g>
<!-- [root] provider[&quot;registry.terraform.io/hashicorp/aws&quot;] (close)&#45;&gt;[root] aws_eip.nat (expand) -->
<g id="edge39" class="edge">
<title>[root] provider[&quot;registry.terraform.io/hashicorp/aws&quot;] (close)&#45;&gt;[root] aws_eip.nat (expand)</title>
<path fill="none" stroke="#000000" d="M784.2939,-503.8314C773.455,-494.9632 760.2556,-484.1637 748.5322,-474.5718"/>
<polygon fill="#000000" stroke="#000000" points="750.655,-471.7864 740.699,-468.1628 746.2223,-477.2041 750.655,-471.7864"/>
</g>
<!-- [root] provider[&quot;registry.terraform.io/hashicorp/aws&quot;] (close)&#45;&gt;[root] aws_eip.web&#45;1 (expand) -->
<g id="edge40" class="edge">
<title>[root] provider[&quot;registry.terraform.io/hashicorp/aws&quot;] (close)&#45;&gt;[root] aws_eip.web&#45;1 (expand)</title>
<path fill="none" stroke="#000000" d="M758.553,-504.3868C731.5705,-494.4749 697.668,-482.0209 669.1158,-471.5323"/>
<polygon fill="#000000" stroke="#000000" points="670.2493,-468.2201 659.6557,-468.0572 667.8356,-474.7908 670.2493,-468.2201"/>
</g>
<!-- [root] provider[&quot;registry.terraform.io/hashicorp/aws&quot;] (close)&#45;&gt;[root] aws_instance.db&#45;1 (expand) -->
<g id="edge41" class="edge">
<title>[root] provider[&quot;registry.terraform.io/hashicorp/aws&quot;] (close)&#45;&gt;[root] aws_instance.db&#45;1 (expand)</title>
<path fill="none" stroke="#000000" d="M804.3417,-503.7324C800.8032,-482.6999 791.6614,-448.8862 768.5,-432 697.842,-380.4856 467.9802,-409.5893 364.2665,-395.7586"/>
<polygon fill="#000000" stroke="#000000" points="364.752,-392.2922 354.3358,-394.2296 363.6867,-399.2107 364.752,-392.2922"/>
</g>
<!-- [root] provider[&quot;registry.terraform.io/hashicorp/aws&quot;] (close)&#45;&gt;[root] aws_route_table_association.eu&#45;west&#45;1a&#45;private (expand) -->
<g id="edge42" class="edge">
<title>[root] provider[&quot;registry.terraform.io/hashicorp/aws&quot;] (close)&#45;&gt;[root] aws_route_table_association.eu&#45;west&#45;1a&#45;private (expand)</title>
<path fill="none" stroke="#000000" d="M714.5251,-505.5269C655.2354,-494.9078 577.7985,-481.0385 515.1493,-469.8178"/>
<polygon fill="#000000" stroke="#000000" points="515.687,-466.3585 505.2265,-468.0406 514.4528,-473.2488 515.687,-466.3585"/>
</g>
<!-- [root] provider[&quot;registry.terraform.io/hashicorp/aws&quot;] (close)&#45;&gt;[root] aws_route_table_association.eu&#45;west&#45;1a&#45;public (expand) -->
<g id="edge43" class="edge">
<title>[root] provider[&quot;registry.terraform.io/hashicorp/aws&quot;] (close)&#45;&gt;[root] aws_route_table_association.eu&#45;west&#45;1a&#45;public (expand)</title>
<path fill="none" stroke="#000000" d="M842.5899,-504.2022C861.922,-494.6686 885.9408,-482.8237 906.5899,-472.6406"/>
<polygon fill="#000000" stroke="#000000" points="908.3905,-475.6552 915.8112,-468.0931 905.2944,-469.377 908.3905,-475.6552"/>
</g>
<!-- [root] root -->
<g id="node27" class="node">
<title>[root] root</title>
<ellipse fill="none" stroke="#000000" cx="595.5" cy="-594" rx="47.3916" ry="18"/>
<text text-anchor="middle" x="595.5" y="-590.3" font-family="Times,serif" font-size="14.00" fill="#000000">[root] root</text>
</g>
<!-- [root] root&#45;&gt;[root] meta.count&#45;boundary (EachMode fixup) -->
<g id="edge45" class="edge">
<title>[root] root&#45;&gt;[root] meta.count&#45;boundary (EachMode fixup)</title>
<path fill="none" stroke="#000000" d="M560.1833,-581.9488C528.8445,-571.255 482.3843,-555.4013 445.1122,-542.6828"/>
<polygon fill="#000000" stroke="#000000" points="445.9521,-539.2713 435.3576,-539.3543 443.6914,-545.8963 445.9521,-539.2713"/>
</g>
<!-- [root] root&#45;&gt;[root] provider[&quot;registry.terraform.io/hashicorp/aws&quot;] (close) -->
<g id="edge46" class="edge">
<title>[root] root&#45;&gt;[root] provider[&quot;registry.terraform.io/hashicorp/aws&quot;] (close)</title>
<path fill="none" stroke="#000000" d="M630.8167,-581.9488C661.9402,-571.3285 707.9778,-555.619 745.118,-542.9455"/>
<polygon fill="#000000" stroke="#000000" points="746.5107,-546.1685 754.8446,-539.6265 744.25,-539.5436 746.5107,-546.1685"/>
</g>
</g>
</svg>
